<svg xmlns="http://www.w3.org/2000/svg" viewBox="0 0 1200 1900" font-family="'Segoe UI', Arial, sans-serif">
  <defs>
    <!-- Gradients -->
    <linearGradient id="bgGrad" x1="0%" y1="0%" x2="0%" y2="100%">
      <stop offset="0%" style="stop-color:#0a0e27"/>
      <stop offset="100%" style="stop-color:#1a1040"/>
    </linearGradient>
    <linearGradient id="headerGrad" x1="0%" y1="0%" x2="100%" y2="0%">
      <stop offset="0%" style="stop-color:#00d4ff"/>
      <stop offset="50%" style="stop-color:#7b2ff7"/>
      <stop offset="100%" style="stop-color:#ff2d95"/>
    </linearGradient>
    <linearGradient id="cardGrad1" x1="0%" y1="0%" x2="100%" y2="100%">
      <stop offset="0%" style="stop-color:#141832;stop-opacity:0.95"/>
      <stop offset="100%" style="stop-color:#1c2045;stop-opacity:0.9"/>
    </linearGradient>
    <linearGradient id="accentBlue" x1="0%" y1="0%" x2="0%" y2="100%">
      <stop offset="0%" style="stop-color:#00d4ff"/>
      <stop offset="100%" style="stop-color:#0088cc"/>
    </linearGradient>
    <linearGradient id="accentPurple" x1="0%" y1="0%" x2="0%" y2="100%">
      <stop offset="0%" style="stop-color:#7b2ff7"/>
      <stop offset="100%" style="stop-color:#5a1fb8"/>
    </linearGradient>
    <linearGradient id="accentPink" x1="0%" y1="0%" x2="0%" y2="100%">
      <stop offset="0%" style="stop-color:#ff2d95"/>
      <stop offset="100%" style="stop-color:#cc1a6e"/>
    </linearGradient>
    <linearGradient id="accentGreen" x1="0%" y1="0%" x2="0%" y2="100%">
      <stop offset="0%" style="stop-color:#00e68a"/>
      <stop offset="100%" style="stop-color:#00b36b"/>
    </linearGradient>
    <linearGradient id="accentOrange" x1="0%" y1="0%" x2="0%" y2="100%">
      <stop offset="0%" style="stop-color:#ffaa00"/>
      <stop offset="100%" style="stop-color:#dd8800"/>
    </linearGradient>
    <linearGradient id="timelineGrad" x1="0%" y1="0%" x2="100%" y2="0%">
      <stop offset="0%" style="stop-color:#00d4ff;stop-opacity:0"/>
      <stop offset="15%" style="stop-color:#00d4ff"/>
      <stop offset="85%" style="stop-color:#7b2ff7"/>
      <stop offset="100%" style="stop-color:#7b2ff7;stop-opacity:0"/>
    </linearGradient>
    <linearGradient id="llmRingGrad" x1="0%" y1="0%" x2="100%" y2="100%">
      <stop offset="0%" style="stop-color:#7b2ff7"/>
      <stop offset="50%" style="stop-color:#ff2d95"/>
      <stop offset="100%" style="stop-color:#00d4ff"/>
    </linearGradient>
    <!-- Glow filters -->
    <filter id="glow">
      <feGaussianBlur stdDeviation="3" result="blur"/>
      <feMerge><feMergeNode in="blur"/><feMergeNode in="SourceGraphic"/></feMerge>
    </filter>
    <filter id="glowStrong">
      <feGaussianBlur stdDeviation="6" result="blur"/>
      <feMerge><feMergeNode in="blur"/><feMergeNode in="SourceGraphic"/></feMerge>
    </filter>
    <filter id="shadow">
      <feDropShadow dx="0" dy="4" stdDeviation="8" flood-color="#000" flood-opacity="0.4"/>
    </filter>
    <filter id="shadowLight">
      <feDropShadow dx="0" dy="2" stdDeviation="4" flood-color="#000" flood-opacity="0.25"/>
    </filter>
    <!-- Grid pattern -->
    <pattern id="gridPattern" width="40" height="40" patternUnits="userSpaceOnUse">
      <path d="M 40 0 L 0 0 0 40" fill="none" stroke="#1a2050" stroke-width="0.5"/>
    </pattern>
    <!-- Scan line pattern -->
    <pattern id="scanLines" width="4" height="4" patternUnits="userSpaceOnUse">
      <line x1="0" y1="0" x2="4" y2="0" stroke="#ffffff" stroke-width="0.3" opacity="0.03"/>
    </pattern>
  </defs>

  <!-- ==================== BACKGROUND ==================== -->
  <rect width="1200" height="1900" fill="url(#bgGrad)"/>
  <rect width="1200" height="1900" fill="url(#gridPattern)" opacity="0.3"/>
  <rect width="1200" height="1900" fill="url(#scanLines)"/>

  <!-- Decorative background circles -->
  <circle cx="100" cy="200" r="300" fill="none" stroke="#00d4ff" stroke-width="0.5" opacity="0.08"/>
  <circle cx="100" cy="200" r="250" fill="none" stroke="#00d4ff" stroke-width="0.3" opacity="0.05"/>
  <circle cx="1100" cy="1700" r="350" fill="none" stroke="#7b2ff7" stroke-width="0.5" opacity="0.08"/>
  <circle cx="1100" cy="1700" r="300" fill="none" stroke="#7b2ff7" stroke-width="0.3" opacity="0.05"/>
  <circle cx="600" cy="950" r="500" fill="none" stroke="#ff2d95" stroke-width="0.3" opacity="0.04"/>

  <!-- ==================== HEADER ==================== -->
  <!-- Phase badge -->
  <rect x="400" y="28" width="400" height="48" rx="24" fill="none" stroke="url(#headerGrad)" stroke-width="2"/>
  <text x="600" y="59" text-anchor="middle" fill="url(#headerGrad)" font-size="17" font-weight="600" letter-spacing="5">OPENCLAW KILLCHAIN</text>

  <!-- Main title -->
  <text x="600" y="128" text-anchor="middle" fill="#ffffff" font-size="58" font-weight="800" letter-spacing="3">PHASE 1</text>
  <rect x="180" y="146" width="840" height="3" rx="1.5" fill="url(#headerGrad)" filter="url(#glow)"/>
  <text x="600" y="192" text-anchor="middle" fill="url(#headerGrad)" font-size="38" font-weight="300" letter-spacing="10">RECONNAISSANCE</text>

  <!-- Subtitle -->
  <text x="600" y="232" text-anchor="middle" fill="#8090b0" font-size="16" letter-spacing="2">OSINT AUGMENTÉE PAR LLM NON ALIGNÉ — J−30 → J−15</text>

  <!-- ==================== TIMELINE ==================== -->
  <g transform="translate(0, 268)">
    <rect x="80" y="0" width="1040" height="85" rx="12" fill="url(#cardGrad1)" filter="url(#shadow)"/>
    <rect x="80" y="0" width="1040" height="85" rx="12" fill="none" stroke="#2a3060" stroke-width="1"/>

    <!-- Timeline line -->
    <line x1="150" y1="42" x2="1050" y2="42" stroke="url(#timelineGrad)" stroke-width="3" filter="url(#glow)"/>

    <!-- D-30 marker -->
    <circle cx="200" cy="42" r="11" fill="#0a0e27" stroke="#00d4ff" stroke-width="2.5" filter="url(#glow)"/>
    <circle cx="200" cy="42" r="4.5" fill="#00d4ff"/>
    <text x="200" y="24" text-anchor="middle" fill="#00d4ff" font-size="14" font-weight="700">J−30</text>
    <text x="200" y="68" text-anchor="middle" fill="#6070a0" font-size="10">Début OSINT</text>

    <!-- Phase markers -->
    <circle cx="400" cy="42" r="5" fill="#4050a0" stroke="#00d4ff" stroke-width="1" opacity="0.6"/>
    <text x="400" y="24" text-anchor="middle" fill="#5060a0" font-size="10">LinkedIn</text>
    <text x="400" y="68" text-anchor="middle" fill="#4050a0" font-size="9">Profils collectés</text>

    <circle cx="550" cy="42" r="5" fill="#4050a0" stroke="#7b2ff7" stroke-width="1" opacity="0.6"/>
    <text x="550" y="24" text-anchor="middle" fill="#5060a0" font-size="10">Shodan</text>
    <text x="550" y="68" text-anchor="middle" fill="#4050a0" font-size="9">Infra scannée</text>

    <circle cx="700" cy="42" r="5" fill="#4050a0" stroke="#7b2ff7" stroke-width="1" opacity="0.6"/>
    <text x="700" y="24" text-anchor="middle" fill="#5060a0" font-size="10">Corrélation</text>
    <text x="700" y="68" text-anchor="middle" fill="#4050a0" font-size="9">LLM inference</text>

    <circle cx="850" cy="42" r="5" fill="#4050a0" stroke="#ff2d95" stroke-width="1" opacity="0.6"/>
    <text x="850" y="24" text-anchor="middle" fill="#5060a0" font-size="10">Cartographie</text>
    <text x="850" y="68" text-anchor="middle" fill="#4050a0" font-size="9">Organigramme</text>

    <!-- D-15 marker -->
    <circle cx="1000" cy="42" r="11" fill="#0a0e27" stroke="#7b2ff7" stroke-width="2.5" filter="url(#glow)"/>
    <circle cx="1000" cy="42" r="4.5" fill="#7b2ff7"/>
    <text x="1000" y="24" text-anchor="middle" fill="#7b2ff7" font-size="14" font-weight="700">J−15</text>
    <text x="1000" y="68" text-anchor="middle" fill="#6070a0" font-size="10">→ Phase 2</text>
  </g>

  <!-- ==================== CENTRAL LLM ENGINE ==================== -->
  <g transform="translate(600, 460)">
    <!-- Outer animated ring -->
    <circle cx="0" cy="0" r="95" fill="none" stroke="url(#llmRingGrad)" stroke-width="1.5" opacity="0.3" stroke-dasharray="12 6"/>
    <!-- Middle ring -->
    <circle cx="0" cy="0" r="80" fill="none" stroke="#7b2ff7" stroke-width="1" opacity="0.5" stroke-dasharray="4 4"/>
    <!-- Inner circle -->
    <circle cx="0" cy="0" r="65" fill="#0d1025" stroke="#7b2ff7" stroke-width="2.5" filter="url(#glowStrong)"/>
    <!-- Brain icon -->
    <text x="0" y="-15" text-anchor="middle" fill="#7b2ff7" font-size="34">&#x1F9E0;</text>
    <text x="0" y="14" text-anchor="middle" fill="#ffffff" font-size="14" font-weight="700">LLM</text>
    <text x="0" y="32" text-anchor="middle" fill="#a0b0d0" font-size="10">Non aligné</text>
    <text x="0" y="48" text-anchor="middle" fill="#7b2ff7" font-size="9" opacity="0.7">Corrélation &amp; Inférence</text>
  </g>

  <!-- Connection lines from LLM to technique cards -->
  <line x1="520" y1="430" x2="330" y2="440" stroke="#00d4ff" stroke-width="1.5" opacity="0.35" stroke-dasharray="6 3"/>
  <line x1="680" y1="430" x2="870" y2="440" stroke="#00e68a" stroke-width="1.5" opacity="0.35" stroke-dasharray="6 3"/>
  <line x1="520" y1="490" x2="330" y2="610" stroke="#ff2d95" stroke-width="1.5" opacity="0.35" stroke-dasharray="6 3"/>
  <line x1="680" y1="490" x2="870" y2="610" stroke="#ffaa00" stroke-width="1.5" opacity="0.35" stroke-dasharray="6 3"/>

  <!-- ==================== 4 TECHNIQUE CARDS ==================== -->

  <!-- Card 1: OSINT LinkedIn (top-left) -->
  <g transform="translate(80, 395)">
    <rect x="0" y="0" width="280" height="180" rx="12" fill="url(#cardGrad1)" filter="url(#shadow)"/>
    <rect x="0" y="0" width="280" height="180" rx="12" fill="none" stroke="#00d4ff" stroke-width="1" opacity="0.4"/>
    <rect x="0" y="0" width="5" height="180" rx="2" fill="url(#accentBlue)"/>

    <circle cx="40" cy="35" r="20" fill="#00d4ff" opacity="0.15"/>
    <text x="40" y="42" text-anchor="middle" fill="#00d4ff" font-size="20" font-weight="700">in</text>

    <text x="70" y="30" fill="#ffffff" font-size="16" font-weight="700">OSINT LinkedIn</text>
    <text x="70" y="48" fill="#00d4ff" font-size="11" font-weight="600">T1593.002 / T1589.001-003</text>

    <line x1="15" y1="62" x2="265" y2="62" stroke="#2a3060" stroke-width="0.5"/>

    <text x="15" y="82" fill="#a0b0d0" font-size="11.5">&#x2022; Profils publics des employés</text>
    <text x="15" y="100" fill="#a0b0d0" font-size="11.5">&#x2022; Liens hiérarchiques reconstruits</text>
    <text x="15" y="118" fill="#a0b0d0" font-size="11.5">&#x2022; Compétences techniques exposées</text>
    <text x="15" y="136" fill="#a0b0d0" font-size="11.5">&#x2022; Publications scientifiques R&amp;D</text>
    <text x="15" y="154" fill="#a0b0d0" font-size="11.5">&#x2022; Graphe social complet</text>

    <!-- Badge -->
    <rect x="200" y="162" width="70" height="16" rx="8" fill="#00d4ff" opacity="0.15"/>
    <text x="235" y="174" text-anchor="middle" fill="#00d4ff" font-size="9" font-weight="600">HUMINT++</text>
  </g>

  <!-- Card 2: Shodan/Censys (top-right) -->
  <g transform="translate(840, 395)">
    <rect x="0" y="0" width="280" height="180" rx="12" fill="url(#cardGrad1)" filter="url(#shadow)"/>
    <rect x="0" y="0" width="280" height="180" rx="12" fill="none" stroke="#00e68a" stroke-width="1" opacity="0.4"/>
    <rect x="0" y="0" width="5" height="180" rx="2" fill="url(#accentGreen)"/>

    <circle cx="40" cy="35" r="20" fill="#00e68a" opacity="0.15"/>
    <text x="40" y="41" text-anchor="middle" fill="#00e68a" font-size="16" font-weight="700">&#x1F50D;</text>

    <text x="70" y="30" fill="#ffffff" font-size="16" font-weight="700">Shodan / Censys</text>
    <text x="70" y="48" fill="#00e68a" font-size="11" font-weight="600">T1596.005 / T1590.001-006</text>

    <line x1="15" y1="62" x2="265" y2="62" stroke="#2a3060" stroke-width="0.5"/>

    <text x="15" y="82" fill="#a0b0d0" font-size="11.5">&#x2022; Services exposés sur Internet</text>
    <text x="15" y="100" fill="#a0b0d0" font-size="11.5">&#x2022; Métadonnées d'infrastructure</text>
    <text x="15" y="118" fill="#a0b0d0" font-size="11.5">&#x2022; Ports et protocoles ouverts</text>
    <text x="15" y="136" fill="#a0b0d0" font-size="11.5">&#x2022; Certificats SSL/TLS</text>
    <text x="15" y="154" fill="#a0b0d0" font-size="11.5">&#x2022; VPN Fortinet identifié</text>

    <!-- Badge -->
    <rect x="195" y="162" width="75" height="16" rx="8" fill="#00e68a" opacity="0.15"/>
    <text x="232" y="174" text-anchor="middle" fill="#00e68a" font-size="9" font-weight="600">TECHINT</text>
  </g>

  <!-- Card 3: Graphe Social (bottom-left) -->
  <g transform="translate(80, 600)">
    <rect x="0" y="0" width="280" height="180" rx="12" fill="url(#cardGrad1)" filter="url(#shadow)"/>
    <rect x="0" y="0" width="280" height="180" rx="12" fill="none" stroke="#ff2d95" stroke-width="1" opacity="0.4"/>
    <rect x="0" y="0" width="5" height="180" rx="2" fill="url(#accentPink)"/>

    <circle cx="40" cy="35" r="20" fill="#ff2d95" opacity="0.15"/>
    <text x="40" y="42" text-anchor="middle" fill="#ff2d95" font-size="18">&#x1F310;</text>

    <text x="70" y="30" fill="#ffffff" font-size="16" font-weight="700">Graphe Social</text>
    <text x="70" y="48" fill="#ff2d95" font-size="11" font-weight="600">T1591.001-004</text>

    <line x1="15" y1="62" x2="265" y2="62" stroke="#2a3060" stroke-width="0.5"/>

    <text x="15" y="82" fill="#a0b0d0" font-size="11.5">&#x2022; Organigramme reconstruit par LLM</text>
    <text x="15" y="100" fill="#a0b0d0" font-size="11.5">&#x2022; Personnel clé identifié</text>
    <text x="15" y="118" fill="#a0b0d0" font-size="11.5">&#x2022; Cibles d'ingénierie sociale</text>
    <text x="15" y="136" fill="#a0b0d0" font-size="11.5">&#x2022; Canaux de communication</text>
    <text x="15" y="154" fill="#a0b0d0" font-size="11.5">&#x2022; Relations inter-équipes</text>

    <!-- Badge -->
    <rect x="195" y="162" width="75" height="16" rx="8" fill="#ff2d95" opacity="0.15"/>
    <text x="232" y="174" text-anchor="middle" fill="#ff2d95" font-size="9" font-weight="600">SOCINT</text>
  </g>

  <!-- Card 4: Fingerprinting (bottom-right) -->
  <g transform="translate(840, 600)">
    <rect x="0" y="0" width="280" height="180" rx="12" fill="url(#cardGrad1)" filter="url(#shadow)"/>
    <rect x="0" y="0" width="280" height="180" rx="12" fill="none" stroke="#ffaa00" stroke-width="1" opacity="0.4"/>
    <rect x="275" y="0" width="5" height="180" rx="2" fill="url(#accentOrange)"/>

    <circle cx="40" cy="35" r="20" fill="#ffaa00" opacity="0.15"/>
    <text x="40" y="42" text-anchor="middle" fill="#ffaa00" font-size="18">&#x1F5A5;</text>

    <text x="70" y="30" fill="#ffffff" font-size="16" font-weight="700">Fingerprinting</text>
    <text x="70" y="48" fill="#ffaa00" font-size="11" font-weight="600">T1592.001-004</text>

    <line x1="15" y1="62" x2="265" y2="62" stroke="#2a3060" stroke-width="0.5"/>

    <text x="15" y="82" fill="#a0b0d0" font-size="11.5">&#x2022; Empreinte HTML OpenClaw</text>
    <text x="15" y="100" fill="#a0b0d0" font-size="11.5">&#x2022; Stack technique cartographiée</text>
    <text x="15" y="118" fill="#a0b0d0" font-size="11.5">&#x2022; Versions logicielles détectées</text>
    <text x="15" y="136" fill="#a0b0d0" font-size="11.5">&#x2022; Points d'entrée potentiels</text>
    <text x="15" y="154" fill="#a0b0d0" font-size="11.5">&#x2022; CVE-2024-55591 repéré</text>

    <!-- Badge -->
    <rect x="195" y="162" width="75" height="16" rx="8" fill="#ffaa00" opacity="0.15"/>
    <text x="232" y="174" text-anchor="middle" fill="#ffaa00" font-size="9" font-weight="600">SIGINT</text>
  </g>

  <!-- ==================== CIBLE : PHARMEURYS ==================== -->
  <g transform="translate(0, 815)">
    <rect x="80" y="0" width="1040" height="50" rx="8" fill="#141832" opacity="0.8"/>
    <rect x="80" y="0" width="1040" height="3" rx="1.5" fill="url(#headerGrad)"/>
    <text x="600" y="35" text-anchor="middle" fill="#ffffff" font-size="18" font-weight="700" letter-spacing="3">CIBLE : PHARMEURYS SA</text>
  </g>

  <!-- Target info cards -->
  <!-- Card: Company Profile -->
  <g transform="translate(80, 885)">
    <rect x="0" y="0" width="340" height="140" rx="10" fill="url(#cardGrad1)" filter="url(#shadow)"/>
    <rect x="0" y="0" width="340" height="140" rx="10" fill="none" stroke="#2a3060" stroke-width="1"/>

    <circle cx="35" cy="35" r="22" fill="#7b2ff7" opacity="0.2"/>
    <text x="35" y="42" text-anchor="middle" fill="#7b2ff7" font-size="20">&#x1F3E2;</text>

    <text x="68" y="30" fill="#ffffff" font-size="15" font-weight="700">Profil Entreprise</text>
    <text x="68" y="48" fill="#6070a0" font-size="11">PME pharmaceutique européenne</text>

    <text x="15" y="75" fill="#a0b0d0" font-size="11.5">Secteur</text>
    <text x="200" y="75" fill="#ffffff" font-size="11.5" font-weight="600">Pharmaceutique / R&amp;D</text>
    <text x="15" y="95" fill="#a0b0d0" font-size="11.5">Effectifs</text>
    <text x="200" y="95" fill="#ffffff" font-size="11.5" font-weight="600">~500 employés</text>
    <text x="15" y="115" fill="#a0b0d0" font-size="11.5">Infrastructure</text>
    <text x="200" y="115" fill="#ffffff" font-size="11.5" font-weight="600">Microsoft / Windows / AD</text>
    <text x="15" y="135" fill="#a0b0d0" font-size="11.5">VPN</text>
    <text x="200" y="135" fill="#ffffff" font-size="11.5" font-weight="600">Fortinet FortiOS</text>
  </g>

  <!-- Card: Exposed Surface -->
  <g transform="translate(440, 885)">
    <rect x="0" y="0" width="320" height="140" rx="10" fill="url(#cardGrad1)" filter="url(#shadow)"/>
    <rect x="0" y="0" width="320" height="140" rx="10" fill="none" stroke="#ff2d95" stroke-width="1" opacity="0.5"/>

    <circle cx="35" cy="35" r="22" fill="#ff2d95" opacity="0.2"/>
    <text x="35" y="42" text-anchor="middle" fill="#ff2d95" font-size="20">&#x26A0;</text>

    <text x="68" y="30" fill="#ffffff" font-size="15" font-weight="700">Surface Exposée</text>
    <text x="68" y="48" fill="#6070a0" font-size="11">Découverte via Shodan — février 2026</text>

    <!-- Big number -->
    <text x="160" y="105" text-anchor="middle" fill="#ff2d95" font-size="42" font-weight="800" filter="url(#glow)">40 000+</text>
    <text x="160" y="128" text-anchor="middle" fill="#a0b0d0" font-size="11">agents OpenClaw exposés mondialement</text>
    <text x="160" y="140" text-anchor="middle" fill="#6070a0" font-size="9" font-style="italic">Source : SecurityScorecard, fév. 2026</text>
  </g>

  <!-- Card: Lethal Trifecta -->
  <g transform="translate(780, 885)">
    <rect x="0" y="0" width="340" height="140" rx="10" fill="url(#cardGrad1)" filter="url(#shadow)"/>
    <rect x="0" y="0" width="340" height="140" rx="10" fill="none" stroke="#ffaa00" stroke-width="1" opacity="0.5"/>

    <circle cx="35" cy="35" r="22" fill="#ffaa00" opacity="0.2"/>
    <text x="35" y="42" text-anchor="middle" fill="#ffaa00" font-size="18">&#x2622;</text>

    <text x="68" y="30" fill="#ffffff" font-size="15" font-weight="700">Trifecta Létale</text>
    <text x="68" y="48" fill="#ffaa00" font-size="11" font-weight="600">Willison (2026) — Zone critique</text>

    <circle cx="22" cy="78" r="6" fill="#ff2d95" opacity="0.6"/>
    <text x="36" y="82" fill="#a0b0d0" font-size="11">Accès données privées (R&amp;D, emails)</text>

    <circle cx="22" cy="100" r="6" fill="#ffaa00" opacity="0.6"/>
    <text x="36" y="104" fill="#a0b0d0" font-size="11">Exposition contenu non fiable (web, Slack)</text>

    <circle cx="22" cy="122" r="6" fill="#00e68a" opacity="0.6"/>
    <text x="36" y="126" fill="#a0b0d0" font-size="11">Communication externe (API, HTTP, email)</text>

    <text x="170" y="140" text-anchor="middle" fill="#ffaa00" font-size="9" font-style="italic" opacity="0.7">Les 3 conditions réunies = exfiltration possible</text>
  </g>

  <!-- ==================== FLUX DE RECONNAISSANCE ==================== -->
  <g transform="translate(0, 1055)">
    <rect x="80" y="0" width="1040" height="50" rx="8" fill="#141832" opacity="0.8"/>
    <rect x="80" y="0" width="1040" height="3" rx="1.5" fill="url(#headerGrad)"/>
    <text x="600" y="35" text-anchor="middle" fill="#ffffff" font-size="18" font-weight="700" letter-spacing="3">FLUX DE RECONNAISSANCE</text>
  </g>

  <!-- Flow Steps -->
  <!-- Step 1: Collecte -->
  <g transform="translate(90, 1125)">
    <rect x="0" y="0" width="230" height="135" rx="10" fill="url(#cardGrad1)" filter="url(#shadow)"/>
    <rect x="0" y="0" width="230" height="4" rx="2" fill="#00d4ff"/>

    <text x="115" y="28" text-anchor="middle" fill="#00d4ff" font-size="12" font-weight="700" letter-spacing="2">ÉTAPE 1</text>
    <text x="115" y="52" text-anchor="middle" fill="#ffffff" font-size="16" font-weight="700">Collecte massive</text>
    <line x1="20" y1="62" x2="210" y2="62" stroke="#2a3060" stroke-width="0.5"/>
    <text x="115" y="80" text-anchor="middle" fill="#a0b0d0" font-size="10.5">Sources publiques :</text>
    <text x="115" y="96" text-anchor="middle" fill="#a0b0d0" font-size="10.5">LinkedIn, Shodan, Censys</text>
    <text x="115" y="112" text-anchor="middle" fill="#a0b0d0" font-size="10.5">Publications académiques</text>
    <text x="115" y="128" text-anchor="middle" fill="#a0b0d0" font-size="10.5">Registres (DNS, WHOIS)</text>
  </g>

  <!-- Arrow 1 -->
  <g transform="translate(325, 1185)">
    <line x1="0" y1="8" x2="45" y2="8" stroke="#00d4ff" stroke-width="2" opacity="0.6"/>
    <polygon points="45,3 55,8 45,13" fill="#00d4ff" opacity="0.6"/>
  </g>

  <!-- Step 2: Corrélation LLM -->
  <g transform="translate(385, 1125)">
    <rect x="0" y="0" width="230" height="135" rx="10" fill="url(#cardGrad1)" filter="url(#shadow)"/>
    <rect x="0" y="0" width="230" height="4" rx="2" fill="#7b2ff7"/>

    <text x="115" y="28" text-anchor="middle" fill="#7b2ff7" font-size="12" font-weight="700" letter-spacing="2">ÉTAPE 2</text>
    <text x="115" y="52" text-anchor="middle" fill="#ffffff" font-size="16" font-weight="700">Corrélation LLM</text>
    <line x1="20" y1="62" x2="210" y2="62" stroke="#2a3060" stroke-width="0.5"/>
    <text x="115" y="80" text-anchor="middle" fill="#a0b0d0" font-size="10.5">Inférence sur données</text>
    <text x="115" y="96" text-anchor="middle" fill="#a0b0d0" font-size="10.5">fragmentaires</text>
    <text x="115" y="112" text-anchor="middle" fill="#a0b0d0" font-size="10.5">Reconstruction de liens</text>
    <text x="115" y="128" text-anchor="middle" fill="#a0b0d0" font-size="10.5">hiérarchiques implicites</text>
  </g>

  <!-- Arrow 2 -->
  <g transform="translate(620, 1185)">
    <line x1="0" y1="8" x2="45" y2="8" stroke="#7b2ff7" stroke-width="2" opacity="0.6"/>
    <polygon points="45,3 55,8 45,13" fill="#7b2ff7" opacity="0.6"/>
  </g>

  <!-- Step 3: Cartographie -->
  <g transform="translate(680, 1125)">
    <rect x="0" y="0" width="230" height="135" rx="10" fill="url(#cardGrad1)" filter="url(#shadow)"/>
    <rect x="0" y="0" width="230" height="4" rx="2" fill="#ff2d95"/>

    <text x="115" y="28" text-anchor="middle" fill="#ff2d95" font-size="12" font-weight="700" letter-spacing="2">ÉTAPE 3</text>
    <text x="115" y="52" text-anchor="middle" fill="#ffffff" font-size="16" font-weight="700">Cartographie</text>
    <line x1="20" y1="62" x2="210" y2="62" stroke="#2a3060" stroke-width="0.5"/>
    <text x="115" y="80" text-anchor="middle" fill="#a0b0d0" font-size="10.5">Organigramme complet</text>
    <text x="115" y="96" text-anchor="middle" fill="#a0b0d0" font-size="10.5">Infrastructure technique</text>
    <text x="115" y="112" text-anchor="middle" fill="#a0b0d0" font-size="10.5">Vecteurs d'attaque</text>
    <text x="115" y="128" text-anchor="middle" fill="#a0b0d0" font-size="10.5">Surface d'exposition</text>
  </g>

  <!-- Arrow 3 -->
  <g transform="translate(915, 1185)">
    <line x1="0" y1="8" x2="45" y2="8" stroke="#ff2d95" stroke-width="2" opacity="0.6"/>
    <polygon points="45,3 55,8 45,13" fill="#ff2d95" opacity="0.6"/>
  </g>

  <!-- Step 4: Output -->
  <g transform="translate(965, 1125)">
    <rect x="0" y="0" width="155" height="135" rx="10" fill="url(#cardGrad1)" filter="url(#shadow)"/>
    <rect x="0" y="0" width="155" height="4" rx="2" fill="#00e68a"/>
    <rect x="0" y="0" width="155" height="135" rx="10" fill="none" stroke="#00e68a" stroke-width="1" opacity="0.3"/>

    <text x="78" y="28" text-anchor="middle" fill="#00e68a" font-size="12" font-weight="700" letter-spacing="1">OUTPUT</text>
    <text x="78" y="55" text-anchor="middle" fill="#ffffff" font-size="14" font-weight="700">Renseignement</text>
    <text x="78" y="73" text-anchor="middle" fill="#ffffff" font-size="14" font-weight="700">Actionnable</text>
    <line x1="15" y1="82" x2="140" y2="82" stroke="#2a3060" stroke-width="0.5"/>
    <text x="78" y="102" text-anchor="middle" fill="#00e68a" font-size="13" font-weight="700">&#x2192; Phase 2</text>
    <text x="78" y="120" text-anchor="middle" fill="#6070a0" font-size="10">Armement</text>
  </g>

  <!-- ==================== MITRE ATT&CK ==================== -->
  <g transform="translate(0, 1290)">
    <rect x="80" y="0" width="1040" height="50" rx="8" fill="#141832" opacity="0.8"/>
    <rect x="80" y="0" width="1040" height="3" rx="1.5" fill="url(#headerGrad)"/>
    <text x="600" y="35" text-anchor="middle" fill="#ffffff" font-size="18" font-weight="700" letter-spacing="3">COUVERTURE MITRE ATT&amp;CK</text>
  </g>

  <!-- MITRE Cards -->
  <!-- Reconnaissance -->
  <g transform="translate(90, 1360)">
    <rect x="0" y="0" width="320" height="120" rx="10" fill="url(#cardGrad1)" filter="url(#shadow)"/>
    <rect x="0" y="0" width="320" height="3" rx="1.5" fill="#00d4ff"/>

    <text x="160" y="28" text-anchor="middle" fill="#00d4ff" font-size="15" font-weight="700">Reconnaissance (TA0043)</text>

    <!-- Technique badges -->
    <rect x="12" y="42" width="60" height="22" rx="11" fill="#00d4ff" opacity="0.15"/>
    <text x="42" y="57" text-anchor="middle" fill="#00d4ff" font-size="10" font-weight="600">T1589</text>
    <rect x="80" y="42" width="60" height="22" rx="11" fill="#00d4ff" opacity="0.15"/>
    <text x="110" y="57" text-anchor="middle" fill="#00d4ff" font-size="10" font-weight="600">T1591</text>
    <rect x="148" y="42" width="60" height="22" rx="11" fill="#00d4ff" opacity="0.15"/>
    <text x="178" y="57" text-anchor="middle" fill="#00d4ff" font-size="10" font-weight="600">T1593</text>
    <rect x="216" y="42" width="60" height="22" rx="11" fill="#00d4ff" opacity="0.15"/>
    <text x="246" y="57" text-anchor="middle" fill="#00d4ff" font-size="10" font-weight="600">T1596</text>

    <text x="44" y="90" text-anchor="middle" fill="#ffffff" font-size="32" font-weight="800">4</text>
    <text x="75" y="90" fill="#6070a0" font-size="12">techniques</text>
    <text x="75" y="108" fill="#4050a0" font-size="10" font-style="italic">Employés, sites, réseaux, services</text>
  </g>

  <!-- Discovery -->
  <g transform="translate(440, 1360)">
    <rect x="0" y="0" width="300" height="120" rx="10" fill="url(#cardGrad1)" filter="url(#shadow)"/>
    <rect x="0" y="0" width="300" height="3" rx="1.5" fill="#7b2ff7"/>

    <text x="150" y="28" text-anchor="middle" fill="#7b2ff7" font-size="15" font-weight="700">Discovery (TA0007)</text>

    <rect x="60" y="42" width="60" height="22" rx="11" fill="#7b2ff7" opacity="0.15"/>
    <text x="90" y="57" text-anchor="middle" fill="#7b2ff7" font-size="10" font-weight="600">T1590</text>
    <rect x="130" y="42" width="60" height="22" rx="11" fill="#7b2ff7" opacity="0.15"/>
    <text x="160" y="57" text-anchor="middle" fill="#7b2ff7" font-size="10" font-weight="600">T1592</text>

    <text x="44" y="90" text-anchor="middle" fill="#ffffff" font-size="32" font-weight="800">2</text>
    <text x="75" y="90" fill="#6070a0" font-size="12">techniques</text>
    <text x="75" y="108" fill="#4050a0" font-size="10" font-style="italic">Infra réseau, fingerprinting</text>
  </g>

  <!-- Resource Development -->
  <g transform="translate(770, 1360)">
    <rect x="0" y="0" width="350" height="120" rx="10" fill="url(#cardGrad1)" filter="url(#shadow)"/>
    <rect x="0" y="0" width="350" height="3" rx="1.5" fill="#ff2d95"/>

    <text x="175" y="28" text-anchor="middle" fill="#ff2d95" font-size="15" font-weight="700">Resource Development (TA0042)</text>

    <rect x="115" y="42" width="120" height="22" rx="11" fill="#ff2d95" opacity="0.15"/>
    <text x="175" y="57" text-anchor="middle" fill="#ff2d95" font-size="10" font-weight="600">LLM Non Aligné</text>

    <text x="54" y="90" text-anchor="middle" fill="#ffffff" font-size="32" font-weight="800">1</text>
    <text x="85" y="90" fill="#6070a0" font-size="12">technique</text>
    <text x="85" y="108" fill="#4050a0" font-size="10" font-style="italic">Acquisition de capacités IA offensives</text>
  </g>

  <!-- ==================== KEY STATS BAR ==================== -->
  <g transform="translate(80, 1510)">
    <rect x="0" y="0" width="1040" height="70" rx="10" fill="url(#cardGrad1)" filter="url(#shadowLight)"/>
    <rect x="0" y="0" width="1040" height="70" rx="10" fill="none" stroke="#2a3060" stroke-width="1"/>

    <!-- Stat 1 -->
    <text x="130" y="28" text-anchor="middle" fill="#00d4ff" font-size="26" font-weight="800">7</text>
    <text x="130" y="48" text-anchor="middle" fill="#8090b0" font-size="10">techniques</text>
    <text x="130" y="62" text-anchor="middle" fill="#5060a0" font-size="9">MITRE ATT&amp;CK</text>

    <line x1="260" y1="10" x2="260" y2="60" stroke="#2a3060" stroke-width="0.5"/>

    <!-- Stat 2 -->
    <text x="390" y="28" text-anchor="middle" fill="#7b2ff7" font-size="26" font-weight="800">15</text>
    <text x="390" y="48" text-anchor="middle" fill="#8090b0" font-size="10">jours</text>
    <text x="390" y="62" text-anchor="middle" fill="#5060a0" font-size="9">de reconnaissance</text>

    <line x1="520" y1="10" x2="520" y2="60" stroke="#2a3060" stroke-width="0.5"/>

    <!-- Stat 3 -->
    <text x="650" y="28" text-anchor="middle" fill="#ff2d95" font-size="26" font-weight="800">4</text>
    <text x="650" y="48" text-anchor="middle" fill="#8090b0" font-size="10">sources OSINT</text>
    <text x="650" y="62" text-anchor="middle" fill="#5060a0" font-size="9">simultanées</text>

    <line x1="780" y1="10" x2="780" y2="60" stroke="#2a3060" stroke-width="0.5"/>

    <!-- Stat 4 -->
    <text x="910" y="28" text-anchor="middle" fill="#00e68a" font-size="26" font-weight="800">100%</text>
    <text x="910" y="48" text-anchor="middle" fill="#8090b0" font-size="10">passif</text>
    <text x="910" y="62" text-anchor="middle" fill="#5060a0" font-size="9">aucune alerte déclenchée</text>
  </g>

  <!-- ==================== CONCLUSION CLÉ ==================== -->
  <g transform="translate(80, 1605)">
    <rect x="0" y="0" width="1040" height="100" rx="12" fill="#141832" filter="url(#shadow)"/>
    <rect x="0" y="0" width="1040" height="100" rx="12" fill="none" stroke="#7b2ff7" stroke-width="1" opacity="0.4"/>
    <rect x="0" y="0" width="6" height="100" rx="3" fill="#7b2ff7"/>

    <text x="25" y="28" fill="#7b2ff7" font-size="14" font-weight="700" letter-spacing="2">CONCLUSION CLÉ</text>
    <text x="25" y="50" fill="#d0d8e8" font-size="12.5">Le LLM permet la corrélation et l'inférence d'informations que la collecte OSINT manuelle traditionnelle</text>
    <text x="25" y="68" fill="#d0d8e8" font-size="12.5">n'aurait pas produites dans le même délai — notamment la reconstruction de liens hiérarchiques</text>
    <text x="25" y="86" fill="#d0d8e8" font-size="12.5">à partir de données fragmentaires. La phase reste 100 % passive : aucune interaction directe avec la cible.</text>
  </g>

  <!-- ==================== FOOTER ==================== -->
  <g transform="translate(0, 1735)">
    <rect x="80" y="0" width="1040" height="120" rx="12" fill="#0d1020" opacity="0.6"/>

    <!-- Killchain navigation -->
    <text x="600" y="25" text-anchor="middle" fill="#4050a0" font-size="12" letter-spacing="3">KILLCHAIN OPENCLAW — NAVIGATION</text>

    <!-- Phase indicators -->
    <rect x="150" y="42" width="140" height="38" rx="19" fill="#7b2ff7" opacity="0.3" stroke="#7b2ff7" stroke-width="1.5"/>
    <text x="220" y="66" text-anchor="middle" fill="#ffffff" font-size="14" font-weight="700">Phase 1 &#x25C0;</text>

    <text x="330" y="65" text-anchor="middle" fill="#3040a0" font-size="18">&#x2192;</text>

    <rect x="365" y="42" width="140" height="38" rx="19" fill="none" stroke="#3040a0" stroke-width="1"/>
    <text x="435" y="66" text-anchor="middle" fill="#5060a0" font-size="13">Phase 2</text>

    <text x="540" y="65" text-anchor="middle" fill="#3040a0" font-size="18">&#x2192;</text>

    <rect x="570" y="42" width="140" height="38" rx="19" fill="none" stroke="#3040a0" stroke-width="1"/>
    <text x="640" y="66" text-anchor="middle" fill="#5060a0" font-size="13">Phase 3</text>

    <text x="745" y="65" text-anchor="middle" fill="#3040a0" font-size="18">&#x2192;</text>

    <rect x="775" y="42" width="140" height="38" rx="19" fill="none" stroke="#3040a0" stroke-width="1"/>
    <text x="845" y="66" text-anchor="middle" fill="#5060a0" font-size="13">Phase 4</text>

    <text x="950" y="65" text-anchor="middle" fill="#3040a0" font-size="18">&#x2192;</text>

    <rect x="980" y="42" width="140" height="38" rx="19" fill="none" stroke="#3040a0" stroke-width="1"/>
    <text x="1050" y="66" text-anchor="middle" fill="#5060a0" font-size="13">Phase 5</text>

    <text x="600" y="100" text-anchor="middle" fill="#2a3060" font-size="10" letter-spacing="1">OpenClaw Killchain Analysis — F. Pizzi — Univ. Paris Sorbonne, 2026 — Infographic v2.0</text>
    <text x="600" y="115" text-anchor="middle" fill="#2a3060" font-size="9">Scénario entièrement fictif — Aucune attaque réelle conduite</text>
  </g>
</svg>