<svg xmlns="http://www.w3.org/2000/svg" viewBox="0 0 1200 1900" font-family="'Segoe UI', Arial, sans-serif">
  <defs>
    <!-- Gradients -->
    <linearGradient id="bgGrad" x1="0%" y1="0%" x2="0%" y2="100%">
      <stop offset="0%" style="stop-color:#0a0e27"/>
      <stop offset="100%" style="stop-color:#1a1040"/>
    </linearGradient>
    <linearGradient id="headerGrad" x1="0%" y1="0%" x2="100%" y2="0%">
      <stop offset="0%" style="stop-color:#ffaa00"/>
      <stop offset="50%" style="stop-color:#ff2d95"/>
      <stop offset="100%" style="stop-color:#7b2ff7"/>
    </linearGradient>
    <linearGradient id="cardGrad1" x1="0%" y1="0%" x2="100%" y2="100%">
      <stop offset="0%" style="stop-color:#141832;stop-opacity:0.95"/>
      <stop offset="100%" style="stop-color:#1c2045;stop-opacity:0.9"/>
    </linearGradient>
    <linearGradient id="accentBlue" x1="0%" y1="0%" x2="0%" y2="100%">
      <stop offset="0%" style="stop-color:#00d4ff"/>
      <stop offset="100%" style="stop-color:#0088cc"/>
    </linearGradient>
    <linearGradient id="accentPurple" x1="0%" y1="0%" x2="0%" y2="100%">
      <stop offset="0%" style="stop-color:#7b2ff7"/>
      <stop offset="100%" style="stop-color:#5a1fb8"/>
    </linearGradient>
    <linearGradient id="accentPink" x1="0%" y1="0%" x2="0%" y2="100%">
      <stop offset="0%" style="stop-color:#ff2d95"/>
      <stop offset="100%" style="stop-color:#cc1a6e"/>
    </linearGradient>
    <linearGradient id="accentGreen" x1="0%" y1="0%" x2="0%" y2="100%">
      <stop offset="0%" style="stop-color:#00e68a"/>
      <stop offset="100%" style="stop-color:#00b36b"/>
    </linearGradient>
    <linearGradient id="accentOrange" x1="0%" y1="0%" x2="0%" y2="100%">
      <stop offset="0%" style="stop-color:#ffaa00"/>
      <stop offset="100%" style="stop-color:#dd8800"/>
    </linearGradient>
    <linearGradient id="accentRed" x1="0%" y1="0%" x2="0%" y2="100%">
      <stop offset="0%" style="stop-color:#ff3333"/>
      <stop offset="100%" style="stop-color:#cc0000"/>
    </linearGradient>
    <linearGradient id="timelineGrad" x1="0%" y1="0%" x2="100%" y2="0%">
      <stop offset="0%" style="stop-color:#ffaa00;stop-opacity:0"/>
      <stop offset="15%" style="stop-color:#ffaa00"/>
      <stop offset="85%" style="stop-color:#ff2d95"/>
      <stop offset="100%" style="stop-color:#ff2d95;stop-opacity:0"/>
    </linearGradient>
    <linearGradient id="hubRingGrad" x1="0%" y1="0%" x2="100%" y2="100%">
      <stop offset="0%" style="stop-color:#ff2d95"/>
      <stop offset="50%" style="stop-color:#ffaa00"/>
      <stop offset="100%" style="stop-color:#ff3333"/>
    </linearGradient>
    <!-- Glow filters -->
    <filter id="glow">
      <feGaussianBlur stdDeviation="3" result="blur"/>
      <feMerge><feMergeNode in="blur"/><feMergeNode in="SourceGraphic"/></feMerge>
    </filter>
    <filter id="glowStrong">
      <feGaussianBlur stdDeviation="6" result="blur"/>
      <feMerge><feMergeNode in="blur"/><feMergeNode in="SourceGraphic"/></feMerge>
    </filter>
    <filter id="shadow">
      <feDropShadow dx="0" dy="4" stdDeviation="8" flood-color="#000" flood-opacity="0.4"/>
    </filter>
    <filter id="shadowLight">
      <feDropShadow dx="0" dy="2" stdDeviation="4" flood-color="#000" flood-opacity="0.25"/>
    </filter>
    <!-- Grid pattern -->
    <pattern id="gridPattern" width="40" height="40" patternUnits="userSpaceOnUse">
      <path d="M 40 0 L 0 0 0 40" fill="none" stroke="#1a2050" stroke-width="0.5"/>
    </pattern>
    <!-- Scan line pattern -->
    <pattern id="scanLines" width="4" height="4" patternUnits="userSpaceOnUse">
      <line x1="0" y1="0" x2="4" y2="0" stroke="#ffffff" stroke-width="0.3" opacity="0.03"/>
    </pattern>
  </defs>

  <!-- ==================== BACKGROUND ==================== -->
  <rect width="1200" height="1900" fill="url(#bgGrad)"/>
  <rect width="1200" height="1900" fill="url(#gridPattern)" opacity="0.3"/>
  <rect width="1200" height="1900" fill="url(#scanLines)"/>

  <!-- Decorative background circles -->
  <circle cx="100" cy="200" r="300" fill="none" stroke="#ffaa00" stroke-width="0.5" opacity="0.08"/>
  <circle cx="100" cy="200" r="250" fill="none" stroke="#ffaa00" stroke-width="0.3" opacity="0.05"/>
  <circle cx="1100" cy="1700" r="350" fill="none" stroke="#ff2d95" stroke-width="0.5" opacity="0.08"/>
  <circle cx="1100" cy="1700" r="300" fill="none" stroke="#ff2d95" stroke-width="0.3" opacity="0.05"/>
  <circle cx="600" cy="950" r="500" fill="none" stroke="#ff3333" stroke-width="0.3" opacity="0.04"/>

  <!-- ==================== HEADER ==================== -->
  <!-- Phase badge -->
  <rect x="400" y="28" width="400" height="48" rx="24" fill="none" stroke="url(#headerGrad)" stroke-width="2"/>
  <text x="600" y="59" text-anchor="middle" fill="url(#headerGrad)" font-size="17" font-weight="600" letter-spacing="5">OPENCLAW KILLCHAIN</text>

  <!-- Main title -->
  <text x="600" y="128" text-anchor="middle" fill="#ffffff" font-size="58" font-weight="800" letter-spacing="3">PHASE 2</text>
  <rect x="180" y="146" width="840" height="3" rx="1.5" fill="url(#headerGrad)" filter="url(#glow)"/>
  <text x="600" y="192" text-anchor="middle" fill="url(#headerGrad)" font-size="38" font-weight="300" letter-spacing="10">WEAPONIZATION</text>

  <!-- Subtitle -->
  <text x="600" y="232" text-anchor="middle" fill="#8090b0" font-size="16" letter-spacing="2">HYBRID AI/CODE ARSENAL DEVELOPMENT — D−15 → D−7</text>

  <!-- ==================== TIMELINE ==================== -->
  <g transform="translate(80, 268)">
    <rect x="0" y="0" width="1040" height="85" rx="12" fill="url(#cardGrad1)" filter="url(#shadow)"/>
    <rect x="0" y="0" width="1040" height="85" rx="12" fill="none" stroke="#2a3060" stroke-width="1"/>

    <!-- Timeline line -->
    <line x1="120" y1="42" x2="920" y2="42" stroke="url(#timelineGrad)" stroke-width="3" filter="url(#glow)"/>

    <!-- D-15 marker -->
    <circle cx="120" cy="42" r="11" fill="#0a0e27" stroke="#ffaa00" stroke-width="2.5" filter="url(#glow)"/>
    <circle cx="120" cy="42" r="4.5" fill="#ffaa00"/>
    <text x="120" y="24" text-anchor="middle" fill="#ffaa00" font-size="14" font-weight="700">D−15</text>
    <text x="120" y="68" text-anchor="middle" fill="#6070a0" font-size="10">Armament Starts</text>

    <!-- Phase markers -->
    <circle cx="386" cy="42" r="5" fill="#503020" stroke="#ffaa00" stroke-width="1" opacity="0.6"/>
    <text x="386" y="24" text-anchor="middle" fill="#a07050" font-size="10">D−12</text>
    <text x="386" y="68" text-anchor="middle" fill="#ffaa00" font-size="9">PromptLock</text>

    <circle cx="653" cy="42" r="5" fill="#502030" stroke="#ff2d95" stroke-width="1" opacity="0.6"/>
    <text x="653" y="24" text-anchor="middle" fill="#a05070" font-size="10">D−8</text>
    <text x="653" y="68" text-anchor="middle" fill="#ff2d95" font-size="9">Slack Payloads</text>

    <!-- D-7 marker -->
    <circle cx="920" cy="42" r="11" fill="#0a0e27" stroke="#7b2ff7" stroke-width="2.5" filter="url(#glow)"/>
    <circle cx="920" cy="42" r="4.5" fill="#7b2ff7"/>
    <text x="920" y="24" text-anchor="middle" fill="#7b2ff7" font-size="14" font-weight="700">D−7</text>
    <text x="920" y="68" text-anchor="middle" fill="#6070a0" font-size="10">→ Phase 3</text>
  </g>

  <!-- ==================== CENTRAL WEAPON FORGE ==================== -->
  <g transform="translate(600, 460)">
    <!-- Outer animated ring -->
    <circle cx="0" cy="0" r="95" fill="none" stroke="url(#hubRingGrad)" stroke-width="1.5" opacity="0.3" stroke-dasharray="12 6"/>
    <!-- Middle ring -->
    <circle cx="0" cy="0" r="80" fill="none" stroke="#ff2d95" stroke-width="1" opacity="0.5" stroke-dasharray="4 4"/>
    <!-- Inner circle -->
    <circle cx="0" cy="0" r="65" fill="#150515" stroke="#ff2d95" stroke-width="2.5" filter="url(#glowStrong)"/>
    <!-- Forge icon -->
    <text x="0" y="-12" text-anchor="middle" fill="#ff2d95" font-size="34">&#x2623;</text>  <!-- Biohazard / Toxic -->
    <text x="0" y="16" text-anchor="middle" fill="#ffffff" font-size="12" font-weight="700">ARSENAL</text>
    <text x="0" y="32" text-anchor="middle" fill="#d0a0b0" font-size="10">Operational</text>
    <text x="0" y="48" text-anchor="middle" fill="#ff2d95" font-size="9" opacity="0.7">Composite Threat</text>
  </g>

  <!-- Connection lines from Hub to 3 technique cards -->
  <line x1="600" y1="440" x2="260" y2="520" stroke="#ffaa00" stroke-width="1.5" opacity="0.35" stroke-dasharray="6 3"/>
  <line x1="600" y1="440" x2="940" y2="520" stroke="#ff3333" stroke-width="1.5" opacity="0.35" stroke-dasharray="6 3"/>
  <line x1="600" y1="520" x2="600" y2="660" stroke="#ff2d95" stroke-width="1.5" opacity="0.35" stroke-dasharray="6 3"/>

  <!-- ==================== 3 TECHNIQUE CARDS ==================== -->

  <!-- Card 1: Skill Piégée (left) -->
  <g transform="translate(110, 440)">
    <rect x="0" y="0" width="300" height="180" rx="12" fill="url(#cardGrad1)" filter="url(#shadow)"/>
    <rect x="0" y="0" width="300" height="180" rx="12" fill="none" stroke="#ffaa00" stroke-width="1" opacity="0.4"/>
    <rect x="0" y="0" width="5" height="180" rx="2" fill="url(#accentOrange)"/>

    <circle cx="40" cy="35" r="20" fill="#ffaa00" opacity="0.15"/>
    <text x="40" y="42" text-anchor="middle" fill="#ffaa00" font-size="20" font-weight="700">&#x1F4E6;</text> <!-- Package -->

    <text x="70" y="30" fill="#ffffff" font-size="16" font-weight="700">Malicious ClawHub Skill</text>
    <text x="70" y="48" fill="#ffaa00" font-size="11" font-weight="600">T1195.002 / Compromise Supply Chain</text>

    <line x1="15" y1="62" x2="285" y2="62" stroke="#2a3060" stroke-width="0.5"/>

    <text x="15" y="82" fill="#a0b0d0" font-size="11.5">&#x2022; Published to public community registry</text>
    <text x="15" y="100" fill="#a0b0d0" font-size="11.5">&#x2022; Hidden malicious code (obfuscated execution)</text>
    <text x="15" y="118" fill="#a0b0d0" font-size="11.5">&#x2022; Stealthy data exfiltration via HTTPS</text>
    <text x="15" y="136" fill="#a0b0d0" font-size="11.5">&#x2022; Disguised as legitimate research tool</text>
    <text x="15" y="154" fill="#a0b0d0" font-size="11.5">&#x2022; Inherits full privileges from the AI agent</text>

    <!-- Badge -->
    <rect x="200" y="162" width="90" height="16" rx="8" fill="#ffaa00" opacity="0.15"/>
    <text x="245" y="174" text-anchor="middle" fill="#ffaa00" font-size="9" font-weight="600">SUPPLY CHAIN</text>
  </g>

  <!-- Card 2: Ransomware PromptLock (right) -->
  <g transform="translate(790, 440)">
    <rect x="0" y="0" width="300" height="180" rx="12" fill="url(#cardGrad1)" filter="url(#shadow)"/>
    <rect x="0" y="0" width="300" height="180" rx="12" fill="none" stroke="#ff3333" stroke-width="1" opacity="0.4"/>
    <rect x="295" y="0" width="5" height="180" rx="2" fill="url(#accentRed)"/>

    <circle cx="40" cy="35" r="20" fill="#ff3333" opacity="0.15"/>
    <text x="40" y="41" text-anchor="middle" fill="#ff3333" font-size="16" font-weight="700">&#x1F512;</text> <!-- Lock -->

    <text x="70" y="30" fill="#ffffff" font-size="16" font-weight="700">PromptLock Ransomware</text>
    <text x="70" y="48" fill="#ff3333" font-size="11" font-weight="600">T1486 / Data Encrypted for Impact</text>

    <line x1="15" y1="62" x2="285" y2="62" stroke="#2a3060" stroke-width="0.5"/>

    <text x="15" y="82" fill="#a0b0d0" font-size="11.5">&#x2022; Orchestrator binary compiled in Go</text>
    <text x="15" y="100" fill="#a0b0d0" font-size="11.5">&#x2022; Dynamic Lua script generation via local LLM</text>
    <text x="15" y="118" fill="#a0b0d0" font-size="11.5">&#x2022; High structural variability (polymorphic)</text>
    <text x="15" y="136" fill="#a0b0d0" font-size="11.5">&#x2022; Deletes Volume Shadow Copies (VSS)</text>
    <text x="15" y="154" fill="#a0b0d0" font-size="11.5">&#x2022; Evades standard static signature detection</text>

    <!-- Badge -->
    <rect x="210" y="162" width="80" height="16" rx="8" fill="#ff3333" opacity="0.15"/>
    <text x="250" y="174" text-anchor="middle" fill="#ff3333" font-size="9" font-weight="600">LLM-DRIVEN</text>
  </g>

  <!-- Card 3: Payloads Injection (bottom center) -->
  <g transform="translate(450, 630)">
    <rect x="0" y="0" width="300" height="180" rx="12" fill="url(#cardGrad1)" filter="url(#shadow)"/>
    <rect x="0" y="0" width="300" height="180" rx="12" fill="none" stroke="#ff2d95" stroke-width="1" opacity="0.4"/>
    <rect x="0" y="0" width="5" height="180" rx="2" fill="url(#accentPink)"/>

    <circle cx="40" cy="35" r="20" fill="#ff2d95" opacity="0.15"/>
    <text x="40" y="42" text-anchor="middle" fill="#ff2d95" font-size="18">&#x1F41B;</text> <!-- Bug -->

    <text x="70" y="30" fill="#ffffff" font-size="16" font-weight="700">Prompt Injection Payloads</text>
    <text x="70" y="48" fill="#ff2d95" font-size="11" font-weight="600">AML.T0051 / Indirect Prompt Injection</text>

    <line x1="15" y1="62" x2="285" y2="62" stroke="#2a3060" stroke-width="0.5"/>

    <text x="15" y="82" fill="#a0b0d0" font-size="11.5">&#x2022; Crafted for Slack and Email integration flows</text>
    <text x="15" y="100" fill="#a0b0d0" font-size="11.5">&#x2022; Embedded in documents or external sources</text>
    <text x="15" y="118" fill="#a0b0d0" font-size="11.5">&#x2022; Hijacks the LLM execution logic upon read</text>
    <text x="15" y="136" fill="#a0b0d0" font-size="11.5">&#x2022; Achieves persistence via HEARTBEAT.md</text>
    <text x="15" y="154" fill="#a0b0d0" font-size="11.5">&#x2022; Bypasses native semantic safety filters</text>

    <!-- Badge -->
    <rect x="215" y="162" width="75" height="16" rx="8" fill="#ff2d95" opacity="0.15"/>
    <text x="252" y="174" text-anchor="middle" fill="#ff2d95" font-size="9" font-weight="600">AI EXPLOIT</text>
  </g>

  <!-- ==================== TARGET: COMPROMISSION SUPPLY CHAIN ==================== -->
  <g transform="translate(0, 845)">
    <rect x="80" y="0" width="1040" height="50" rx="8" fill="#141832" opacity="0.8"/>
    <rect x="80" y="0" width="1040" height="3" rx="1.5" fill="url(#headerGrad)"/>
    <text x="600" y="35" text-anchor="middle" fill="#ffffff" font-size="18" font-weight="700" letter-spacing="3">TARGET: CLAWHUB MARKETPLACE</text>
  </g>

  <!-- Target info cards -->
  <!-- Card: Registry Profile -->
  <g transform="translate(80, 915)">
    <rect x="0" y="0" width="340" height="140" rx="10" fill="url(#cardGrad1)" filter="url(#shadow)"/>
    <rect x="0" y="0" width="340" height="140" rx="10" fill="none" stroke="#2a3060" stroke-width="1"/>

    <circle cx="35" cy="35" r="22" fill="#00d4ff" opacity="0.2"/>
    <text x="35" y="42" text-anchor="middle" fill="#00d4ff" font-size="20">&#x1F310;</text>

    <text x="68" y="30" fill="#ffffff" font-size="15" font-weight="700">Registry Profile</text>
    <text x="68" y="48" fill="#6070a0" font-size="11">OpenClaw Community Registry</text>

    <text x="15" y="75" fill="#a0b0d0" font-size="11.5">Type</text>
    <text x="180" y="75" fill="#ffffff" font-size="11.5" font-weight="600">AI Tooling Marketplace</text>
    <text x="15" y="95" fill="#a0b0d0" font-size="11.5">Governance</text>
    <text x="180" y="95" fill="#ffffff" font-size="11.5" font-weight="600">Decentralized open source</text>
    <text x="15" y="115" fill="#a0b0d0" font-size="11.5">Moderation</text>
    <text x="180" y="115" fill="#ffffff" font-size="11.5" font-weight="600">Post-publication (Reporting)</text>
    <text x="15" y="135" fill="#a0b0d0" font-size="11.5">Entry Barrier</text>
    <text x="180" y="135" fill="#ffffff" font-size="11.5" font-weight="600">Minimal (Free account)</text>
  </g>

  <!-- Card: Vulnerable Surface -->
  <g transform="translate(440, 915)">
    <rect x="0" y="0" width="320" height="140" rx="10" fill="url(#cardGrad1)" filter="url(#shadow)"/>
    <rect x="0" y="0" width="320" height="140" rx="10" fill="none" stroke="#ffaa00" stroke-width="1" opacity="0.5"/>

    <circle cx="35" cy="35" r="22" fill="#ffaa00" opacity="0.2"/>
    <text x="35" y="42" text-anchor="middle" fill="#ffaa00" font-size="20">&#x26A0;</text>

    <text x="68" y="30" fill="#ffffff" font-size="15" font-weight="700">Security Audit</text>
    <text x="68" y="48" fill="#6070a0" font-size="11">Snyk Analysis — February 2026</text>

    <!-- Big numbers -->
    <text x="160" y="95" text-anchor="middle" fill="#ffffff" font-size="28" font-weight="800" filter="url(#glow)">3,984</text>
    <text x="160" y="115" text-anchor="middle" fill="#a0b0d0" font-size="11">skills analyzed</text>
    
    <text x="80" y="140" text-anchor="middle" fill="#ffaa00" font-size="12" font-weight="700">13.4%</text>
    <text x="80" y="152" text-anchor="middle" fill="#8090b0" font-size="9">critical issues</text>

    <text x="240" y="140" text-anchor="middle" fill="#ff2d95" font-size="12" font-weight="700">76 skills</text>
    <text x="240" y="152" text-anchor="middle" fill="#8090b0" font-size="9">malicious payloads</text>
  </g>

  <!-- Card: Threat Composition -->
  <g transform="translate(780, 915)">
    <rect x="0" y="0" width="340" height="140" rx="10" fill="url(#cardGrad1)" filter="url(#shadow)"/>
    <rect x="0" y="0" width="340" height="140" rx="10" fill="none" stroke="#ff2d95" stroke-width="1" opacity="0.5"/>

    <circle cx="35" cy="35" r="22" fill="#ff2d95" opacity="0.2"/>
    <text x="35" y="42" text-anchor="middle" fill="#ff2d95" font-size="18">&#x2623;</text> <!-- Toxic -->

    <text x="68" y="30" fill="#ffffff" font-size="15" font-weight="700">Threat Composition</text>
    <text x="68" y="48" fill="#ff2d95" font-size="11" font-weight="600">ToxicSkills Report — 91% hybrid attacks</text>

    <circle cx="22" cy="78" r="6" fill="#00d4ff" opacity="0.6"/>
    <text x="36" y="82" fill="#a0b0d0" font-size="11">1. Legitimate business code (decoy)</text>

    <circle cx="22" cy="100" r="6" fill="#ffaa00" opacity="0.6"/>
    <text x="36" y="104" fill="#a0b0d0" font-size="11">2. Embedded prompt injection (+)</text>

    <circle cx="22" cy="122" r="6" fill="#ff3333" opacity="0.6"/>
    <text x="36" y="126" fill="#a0b0d0" font-size="11">3. Traditional malware (exfil/C2)</text>

    <text x="170" y="145" text-anchor="middle" fill="#ff2d95" font-size="9" font-style="italic" opacity="0.7">Combining code and AI bypasses legacy antivirus tools</text>
  </g>

  <!-- ==================== DÉVELOPPEMENT ARSENAL FLOW ==================== -->
  <g transform="translate(0, 1095)">
    <rect x="80" y="0" width="1040" height="50" rx="8" fill="#141832" opacity="0.8"/>
    <rect x="80" y="0" width="1040" height="3" rx="1.5" fill="url(#headerGrad)"/>
    <text x="600" y="35" text-anchor="middle" fill="#ffffff" font-size="18" font-weight="700" letter-spacing="3">TOOLING DEVELOPMENT WORKFLOW</text>
  </g>

  <!-- Flow Steps -->
  <!-- Step 1: Base Dev -->
  <g transform="translate(90, 1165)">
    <rect x="0" y="0" width="230" height="135" rx="10" fill="url(#cardGrad1)" filter="url(#shadow)"/>
    <rect x="0" y="0" width="230" height="4" rx="2" fill="#ffaa00"/>

    <text x="115" y="28" text-anchor="middle" fill="#ffaa00" font-size="12" font-weight="700" letter-spacing="2">STEP 1</text>
    <text x="115" y="52" text-anchor="middle" fill="#ffffff" font-size="16" font-weight="700">Development</text>
    <line x1="20" y1="62" x2="210" y2="62" stroke="#2a3060" stroke-width="0.5"/>
    <text x="115" y="80" text-anchor="middle" fill="#a0b0d0" font-size="10.5">Coding the Ransomware (Go)</text>
    <text x="115" y="96" text-anchor="middle" fill="#a0b0d0" font-size="10.5">Crafting Malicious Prompts</text>
    <text x="115" y="112" text-anchor="middle" fill="#a0b0d0" font-size="10.5">Developing Injection Chains</text>
    <text x="115" y="128" text-anchor="middle" fill="#a0b0d0" font-size="10.5">C2 Server Deployment</text>
  </g>

  <!-- Arrow 1 -->
  <g transform="translate(325, 1225)">
    <line x1="0" y1="8" x2="45" y2="8" stroke="#ffaa00" stroke-width="2" opacity="0.6"/>
    <polygon points="45,3 55,8 45,13" fill="#ffaa00" opacity="0.6"/>
  </g>

  <!-- Step 2: Obfuscation -->
  <g transform="translate(385, 1165)">
    <rect x="0" y="0" width="230" height="135" rx="10" fill="url(#cardGrad1)" filter="url(#shadow)"/>
    <rect x="0" y="0" width="230" height="4" rx="2" fill="#ff2d95"/>

    <text x="115" y="28" text-anchor="middle" fill="#ff2d95" font-size="12" font-weight="700" letter-spacing="2">STEP 2</text>
    <text x="115" y="52" text-anchor="middle" fill="#ffffff" font-size="16" font-weight="700">Obfuscation &amp; Build</text>
    <line x1="20" y1="62" x2="210" y2="62" stroke="#2a3060" stroke-width="0.5"/>
    <text x="115" y="80" text-anchor="middle" fill="#a0b0d0" font-size="10.5">Camouflaging exfiltration</text>
    <text x="115" y="96" text-anchor="middle" fill="#a0b0d0" font-size="10.5">instructions in the Skill</text>
    <text x="115" y="112" text-anchor="middle" fill="#a0b0d0" font-size="10.5">Compiling the Ransomware</text>
    <text x="115" y="128" text-anchor="middle" fill="#a0b0d0" font-size="10.5">Final packaging (Tarball/Repo)</text>
  </g>

  <!-- Arrow 2 -->
  <g transform="translate(620, 1225)">
    <line x1="0" y1="8" x2="45" y2="8" stroke="#ff2d95" stroke-width="2" opacity="0.6"/>
    <polygon points="45,3 55,8 45,13" fill="#ff2d95" opacity="0.6"/>
  </g>

  <!-- Step 3: Platforming -->
  <g transform="translate(680, 1165)">
    <rect x="0" y="0" width="230" height="135" rx="10" fill="url(#cardGrad1)" filter="url(#shadow)"/>
    <rect x="0" y="0" width="230" height="4" rx="2" fill="#7b2ff7"/>

    <text x="115" y="28" text-anchor="middle" fill="#7b2ff7" font-size="12" font-weight="700" letter-spacing="2">STEP 3</text>
    <text x="115" y="52" text-anchor="middle" fill="#ffffff" font-size="16" font-weight="700">Availability</text>
    <line x1="20" y1="62" x2="210" y2="62" stroke="#2a3060" stroke-width="0.5"/>
    <text x="115" y="80" text-anchor="middle" fill="#a0b0d0" font-size="10.5">Skill Publishing on ClawHub</text>
    <text x="115" y="96" text-anchor="middle" fill="#a0b0d0" font-size="10.5">Decoy READMEs and rules</text>
    <text x="115" y="112" text-anchor="middle" fill="#a0b0d0" font-size="10.5">Fake community reviews</text>
    <text x="115" y="128" text-anchor="middle" fill="#a0b0d0" font-size="10.5">Waiting for execution</text>
  </g>

  <!-- Arrow 3 -->
  <g transform="translate(915, 1225)">
    <line x1="0" y1="8" x2="45" y2="8" stroke="#7b2ff7" stroke-width="2" opacity="0.6"/>
    <polygon points="45,3 55,8 45,13" fill="#7b2ff7" opacity="0.6"/>
  </g>

  <!-- Step 4: Output -->
  <g transform="translate(965, 1165)">
    <rect x="0" y="0" width="155" height="135" rx="10" fill="url(#cardGrad1)" filter="url(#shadow)"/>
    <rect x="0" y="0" width="155" height="4" rx="2" fill="#00e68a"/>
    <rect x="0" y="0" width="155" height="135" rx="10" fill="none" stroke="#00e68a" stroke-width="1" opacity="0.3"/>

    <text x="78" y="28" text-anchor="middle" fill="#00e68a" font-size="12" font-weight="700" letter-spacing="1">OUTPUT</text>
    <text x="78" y="55" text-anchor="middle" fill="#ffffff" font-size="14" font-weight="700">Arsenal</text>
    <text x="78" y="73" text-anchor="middle" fill="#ffffff" font-size="14" font-weight="700">Operational</text>
    <line x1="15" y1="82" x2="140" y2="82" stroke="#2a3060" stroke-width="0.5"/>
    <text x="78" y="102" text-anchor="middle" fill="#00e68a" font-size="13" font-weight="700">&#x2192; Phase 3</text>
    <text x="78" y="120" text-anchor="middle" fill="#6070a0" font-size="10">Delivery</text>
  </g>

  <!-- ==================== MITRE ATT&CK ==================== -->
  <g transform="translate(0, 1330)">
    <rect x="80" y="0" width="1040" height="50" rx="8" fill="#141832" opacity="0.8"/>
    <rect x="80" y="0" width="1040" height="3" rx="1.5" fill="url(#headerGrad)"/>
    <text x="600" y="35" text-anchor="middle" fill="#ffffff" font-size="18" font-weight="700" letter-spacing="3">MITRE ATT&amp;CK COVERAGE</text>
  </g>

  <!-- MITRE Cards -->
  <!-- Resource Development -->
  <g transform="translate(90, 1400)">
    <rect x="0" y="0" width="460" height="120" rx="10" fill="url(#cardGrad1)" filter="url(#shadow)"/>
    <rect x="0" y="0" width="460" height="3" rx="1.5" fill="#ffaa00"/>

    <text x="230" y="28" text-anchor="middle" fill="#ffaa00" font-size="15" font-weight="700">Resource Development (TA0042)</text>

    <!-- Technique badges -->
    <rect x="145" y="42" width="70" height="22" rx="11" fill="#ffaa00" opacity="0.15"/>
    <text x="180" y="57" text-anchor="middle" fill="#ffaa00" font-size="10" font-weight="600">T1587.001</text>
    
    <rect x="245" y="42" width="70" height="22" rx="11" fill="#ffaa00" opacity="0.15"/>
    <text x="280" y="57" text-anchor="middle" fill="#ffaa00" font-size="10" font-weight="600">T1588.002</text>

    <text x="64" y="90" text-anchor="middle" fill="#ffffff" font-size="32" font-weight="800">2</text>
    <text x="100" y="90" fill="#6070a0" font-size="12">techniques</text>
    <text x="100" y="108" fill="#4050a0" font-size="10" font-style="italic">Malware, Payload generation</text>
  </g>

  <!-- Other prep -->
  <g transform="translate(570, 1400)">
    <rect x="0" y="0" width="230" height="120" rx="10" fill="url(#cardGrad1)" filter="url(#shadow)"/>
    <rect x="0" y="0" width="230" height="3" rx="1.5" fill="#ff2d95"/>

    <text x="115" y="28" text-anchor="middle" fill="#ff2d95" font-size="15" font-weight="700">Defense Evasion</text>

    <rect x="80" y="42" width="70" height="22" rx="11" fill="#ff2d95" opacity="0.15"/>
    <text x="115" y="57" text-anchor="middle" fill="#ff2d95" font-size="10" font-weight="600">T1027</text>

    <text x="64" y="90" text-anchor="middle" fill="#ffffff" font-size="32" font-weight="800">1</text>
    <text x="90" y="90" fill="#6070a0" font-size="12">technique</text>
    <text x="90" y="108" fill="#4050a0" font-size="10" font-style="italic">Obfuscated Content</text>
  </g>

  <!-- Command & Control -->
  <g transform="translate(820, 1400)">
    <rect x="0" y="0" width="290" height="120" rx="10" fill="url(#cardGrad1)" filter="url(#shadow)"/>
    <rect x="0" y="0" width="290" height="3" rx="1.5" fill="#7b2ff7"/>

    <text x="145" y="28" text-anchor="middle" fill="#7b2ff7" font-size="15" font-weight="700">Command &amp; Control</text>

    <rect x="110" y="42" width="70" height="22" rx="11" fill="#7b2ff7" opacity="0.15"/>
    <text x="145" y="57" text-anchor="middle" fill="#7b2ff7" font-size="10" font-weight="600">T1583.001</text>

    <text x="74" y="90" text-anchor="middle" fill="#ffffff" font-size="32" font-weight="800">1</text>
    <text x="100" y="90" fill="#6070a0" font-size="12">technique</text>
    <text x="100" y="108" fill="#4050a0" font-size="10" font-style="italic">Acquire Infrastructure (C2)</text>
  </g>

  <!-- ==================== KEY STATS BAR ==================== -->
  <g transform="translate(80, 1545)">
    <rect x="0" y="0" width="1040" height="70" rx="10" fill="url(#cardGrad1)" filter="url(#shadowLight)"/>
    <rect x="0" y="0" width="1040" height="70" rx="10" fill="none" stroke="#2a3060" stroke-width="1"/>

    <!-- Stat 1 -->
    <text x="130" y="28" text-anchor="middle" fill="#ffaa00" font-size="26" font-weight="800">3</text>
    <text x="130" y="48" text-anchor="middle" fill="#8090b0" font-size="10">components</text>
    <text x="130" y="62" text-anchor="middle" fill="#5060a0" font-size="9">developed</text>

    <line x1="260" y1="10" x2="260" y2="60" stroke="#2a3060" stroke-width="0.5"/>

    <!-- Stat 2 -->
    <text x="390" y="28" text-anchor="middle" fill="#ff2d95" font-size="26" font-weight="800">8</text>
    <text x="390" y="48" text-anchor="middle" fill="#8090b0" font-size="10">days</text>
    <text x="390" y="62" text-anchor="middle" fill="#5060a0" font-size="9">of development</text>

    <line x1="520" y1="10" x2="520" y2="60" stroke="#2a3060" stroke-width="0.5"/>

    <!-- Stat 3 -->
    <text x="650" y="28" text-anchor="middle" fill="#7b2ff7" font-size="26" font-weight="800">13.4%</text>
    <text x="650" y="48" text-anchor="middle" fill="#8090b0" font-size="10">critical skills</text>
    <text x="650" y="62" text-anchor="middle" fill="#5060a0" font-size="9">on ClawHub platform</text>

    <line x1="780" y1="10" x2="780" y2="60" stroke="#2a3060" stroke-width="0.5"/>

    <!-- Stat 4 -->
    <text x="910" y="28" text-anchor="middle" fill="#ff3333" font-size="26" font-weight="800">91%</text>
    <text x="910" y="48" text-anchor="middle" fill="#8090b0" font-size="10">hybrid threats</text>
    <text x="910" y="62" text-anchor="middle" fill="#5060a0" font-size="9">PI + Traditional Malware</text>
  </g>

  <!-- ==================== CONCLUSION CLÉ ==================== -->
  <g transform="translate(80, 1640)">
    <rect x="0" y="0" width="1040" height="100" rx="12" fill="#141832" filter="url(#shadow)"/>
    <rect x="0" y="0" width="1040" height="100" rx="12" fill="none" stroke="#ff2d95" stroke-width="1" opacity="0.4"/>
    <rect x="0" y="0" width="6" height="100" rx="3" fill="#ff2d95"/>

    <text x="25" y="28" fill="#ff2d95" font-size="14" font-weight="700" letter-spacing="2">KEY FINDING</text>
    <text x="25" y="50" fill="#d0d8e8" font-size="12.5">The ClawHub marketplace features minimal barriers: according to Snyk, 13.4% of skills contain critical</text>
    <text x="25" y="68" fill="#d0d8e8" font-size="12.5">vulnerabilities. More alarmingly, 91% of confirmed malicious skills use a hybrid approach (Prompt</text>
    <text x="25" y="86" fill="#d0d8e8" font-size="12.5">Injection + Traditional Malware) specifically designed to bypass legacy endpoint defenses.</text>
  </g>

  <!-- ==================== FOOTER ==================== -->
  <g transform="translate(0, 1765)">
    <rect x="80" y="0" width="1040" height="120" rx="12" fill="#0d1020" opacity="0.6"/>

    <!-- Killchain navigation -->
    <text x="600" y="25" text-anchor="middle" fill="#4050a0" font-size="12" letter-spacing="3">OPENCLAW KILLCHAIN — NAVIGATION</text>

    <!-- Phase indicators -->
    <rect x="150" y="42" width="140" height="38" rx="19" fill="none" stroke="#3040a0" stroke-width="1"/>
    <text x="220" y="66" text-anchor="middle" fill="#5060a0" font-size="13">Phase 1</text>

    <text x="330" y="65" text-anchor="middle" fill="#3040a0" font-size="18">&#x2192;</text>

    <rect x="365" y="42" width="140" height="38" rx="19" fill="#ff2d95" opacity="0.3" stroke="#ff2d95" stroke-width="1.5"/>
    <text x="435" y="66" text-anchor="middle" fill="#ffffff" font-size="14" font-weight="700">Phase 2 &#x25C0;</text>

    <text x="540" y="65" text-anchor="middle" fill="#3040a0" font-size="18">&#x2192;</text>

    <rect x="570" y="42" width="140" height="38" rx="19" fill="none" stroke="#3040a0" stroke-width="1"/>
    <text x="640" y="66" text-anchor="middle" fill="#5060a0" font-size="13">Phase 3</text>

    <text x="745" y="65" text-anchor="middle" fill="#3040a0" font-size="18">&#x2192;</text>

    <rect x="775" y="42" width="140" height="38" rx="19" fill="none" stroke="#3040a0" stroke-width="1"/>
    <text x="845" y="66" text-anchor="middle" fill="#5060a0" font-size="13">Phase 4</text>

    <text x="950" y="65" text-anchor="middle" fill="#3040a0" font-size="18">&#x2192;</text>

    <rect x="980" y="42" width="140" height="38" rx="19" fill="none" stroke="#3040a0" stroke-width="1"/>
    <text x="1050" y="66" text-anchor="middle" fill="#5060a0" font-size="13">Phase 5</text>

    <text x="600" y="100" text-anchor="middle" fill="#2a3060" font-size="10" letter-spacing="1">OpenClaw Killchain Analysis — F. Pizzi — Univ. Paris Sorbonne, 2026 — Infographic v2.1</text>
    <text x="600" y="115" text-anchor="middle" fill="#2a3060" font-size="9">Entirely fictional scenario — No actual attack was conducted</text>
  </g>
</svg>
